<svg width="67" height="16" viewBox="0 0 67 16" fill="none" xmlns="http://www.w3.org/2000/svg">
<mask id="path-1-outside-1_1_46" maskUnits="userSpaceOnUse" x="-1" y="0" width="69" height="17" fill="black">
<rect fill="white" x="-1" width="69" height="17"/>
<path d="M1.49113 6.08C1.49113 3.616 3.82713 1.968 7.33113 1.968C10.8351 1.968 13.1711 3.616 13.1711 6.08C13.1711 8.56 10.8351 10.208 7.33113 10.208C3.82713 10.208 1.49113 8.56 1.49113 6.08ZM12.3551 6.08C12.3551 4.048 10.3071 2.688 7.33113 2.688C4.35513 2.688 2.33913 4.048 2.33913 6.08C2.33913 8.112 4.35513 9.472 7.33113 9.472C10.3071 9.472 12.3551 8.112 12.3551 6.08ZM0.243125 13.504H6.93113V10.656H7.69913V13.504H14.5151V14.288H0.243125V13.504ZM29.2191 0.799999V16L28.4351 15.984L28.4511 0.799999H29.2191ZM15.9551 12.224L15.1551 11.536C16.4991 11.072 17.6991 9.84 18.6751 8.304C20.0031 6.176 20.6271 3.328 20.8511 1.856L21.5871 1.936C21.4751 3.536 20.5151 6.672 20.0031 7.28C20.2911 7.04 20.6111 6.944 20.9311 6.944C22.7711 6.944 24.9791 10.16 25.5391 11.168L25.0271 12.144C24.2591 10.528 22.3231 7.552 20.7551 7.552C20.3871 7.552 20.0511 7.712 19.7471 8.08C18.8511 9.6 17.4271 11.616 15.9551 12.224ZM36.1151 6.752C34.5791 6.752 33.9711 5.952 34.0191 4.8V1.568H34.7871V4.576C34.7871 5.584 35.0911 5.968 36.1951 5.984H44.7711V6.752H36.1151ZM32.1791 9.328H46.4671V10.112H32.1791V9.328ZM35.9551 15.824C34.4191 15.824 33.8111 15.024 33.8591 13.872V12.24H34.6271V13.664C34.6271 14.672 34.9311 15.04 36.0351 15.072H45.2671V15.824H35.9551ZM66.4449 0.799999V9.184H65.6769V0.799999H66.4449ZM54.4769 2.976L54.4929 2.208H59.4369C60.6049 2.192 61.3409 2.816 61.2449 3.888C61.0529 6.064 58.1089 8.688 55.0689 10.368L54.4289 9.648C57.4849 8.224 59.8849 5.936 60.3809 4.272C60.5569 3.68 60.5569 2.976 59.3409 2.976H54.4769ZM56.5729 14.624C56.5729 14.272 56.9249 13.664 57.7409 13.68V13.36H56.4769V12.608H65.6129V11.024H56.7809V10.272H66.3809V13.36H59.0529C57.8049 13.504 57.3409 14.032 57.3409 14.432C57.3409 14.992 57.7729 15.008 59.0689 15.024H66.8449V15.792H58.9889C57.4369 15.776 56.5729 15.648 56.5729 14.624Z"/>
</mask>
<path d="M1.49113 6.08C1.49113 3.616 3.82713 1.968 7.33113 1.968C10.8351 1.968 13.1711 3.616 13.1711 6.08C13.1711 8.56 10.8351 10.208 7.33113 10.208C3.82713 10.208 1.49113 8.56 1.49113 6.08ZM12.3551 6.08C12.3551 4.048 10.3071 2.688 7.33113 2.688C4.35513 2.688 2.33913 4.048 2.33913 6.08C2.33913 8.112 4.35513 9.472 7.33113 9.472C10.3071 9.472 12.3551 8.112 12.3551 6.08ZM0.243125 13.504H6.93113V10.656H7.69913V13.504H14.5151V14.288H0.243125V13.504ZM29.2191 0.799999V16L28.4351 15.984L28.4511 0.799999H29.2191ZM15.9551 12.224L15.1551 11.536C16.4991 11.072 17.6991 9.84 18.6751 8.304C20.0031 6.176 20.6271 3.328 20.8511 1.856L21.5871 1.936C21.4751 3.536 20.5151 6.672 20.0031 7.28C20.2911 7.04 20.6111 6.944 20.9311 6.944C22.7711 6.944 24.9791 10.16 25.5391 11.168L25.0271 12.144C24.2591 10.528 22.3231 7.552 20.7551 7.552C20.3871 7.552 20.0511 7.712 19.7471 8.08C18.8511 9.6 17.4271 11.616 15.9551 12.224ZM36.1151 6.752C34.5791 6.752 33.9711 5.952 34.0191 4.8V1.568H34.7871V4.576C34.7871 5.584 35.0911 5.968 36.1951 5.984H44.7711V6.752H36.1151ZM32.1791 9.328H46.4671V10.112H32.1791V9.328ZM35.9551 15.824C34.4191 15.824 33.8111 15.024 33.8591 13.872V12.24H34.6271V13.664C34.6271 14.672 34.9311 15.04 36.0351 15.072H45.2671V15.824H35.9551ZM66.4449 0.799999V9.184H65.6769V0.799999H66.4449ZM54.4769 2.976L54.4929 2.208H59.4369C60.6049 2.192 61.3409 2.816 61.2449 3.888C61.0529 6.064 58.1089 8.688 55.0689 10.368L54.4289 9.648C57.4849 8.224 59.8849 5.936 60.3809 4.272C60.5569 3.68 60.5569 2.976 59.3409 2.976H54.4769ZM56.5729 14.624C56.5729 14.272 56.9249 13.664 57.7409 13.68V13.36H56.4769V12.608H65.6129V11.024H56.7809V10.272H66.3809V13.36H59.0529C57.8049 13.504 57.3409 14.032 57.3409 14.432C57.3409 14.992 57.7729 15.008 59.0689 15.024H66.8449V15.792H58.9889C57.4369 15.776 56.5729 15.648 56.5729 14.624Z" fill="#333333"/>
<path d="M0.243125 13.504V13.204H-0.0568749V13.504H0.243125ZM6.93113 13.504V13.804H7.23112V13.504H6.93113ZM6.93113 10.656V10.356H6.63112V10.656H6.93113ZM7.69913 10.656H7.99913V10.356H7.69913V10.656ZM7.69913 13.504H7.39913V13.804H7.69913V13.504ZM14.5151 13.504H14.8151V13.204H14.5151V13.504ZM14.5151 14.288V14.588H14.8151V14.288H14.5151ZM0.243125 14.288H-0.0568749V14.588H0.243125V14.288ZM1.79113 6.08C1.79113 4.95508 2.31957 4.01476 3.2699 3.34525C4.22786 2.67037 5.62216 2.268 7.33113 2.268V1.668C5.53609 1.668 4.01039 2.08963 2.92435 2.85475C1.83068 3.62524 1.19113 4.74092 1.19113 6.08H1.79113ZM7.33113 2.268C9.04009 2.268 10.4344 2.67037 11.3923 3.34525C12.3427 4.01476 12.8711 4.95508 12.8711 6.08H13.4711C13.4711 4.74092 12.8316 3.62524 11.7379 2.85475C10.6519 2.08963 9.12616 1.668 7.33113 1.668V2.268ZM12.8711 6.08C12.8711 7.21359 12.3421 8.15781 11.392 8.82898C10.4342 9.50563 9.04011 9.908 7.33113 9.908V10.508C9.12614 10.508 10.652 10.0864 11.7382 9.31902C12.8322 8.54619 13.4711 7.42641 13.4711 6.08H12.8711ZM7.33113 9.908C5.62214 9.908 4.22803 9.50563 3.27022 8.82898C2.32018 8.15781 1.79113 7.21359 1.79113 6.08H1.19113C1.19113 7.42641 1.83007 8.54619 2.92403 9.31902C4.01022 10.0864 5.53611 10.508 7.33113 10.508V9.908ZM12.6551 6.08C12.6551 4.94922 12.0802 4.01389 11.1264 3.37299C10.1798 2.7369 8.86059 2.388 7.33113 2.388V2.988C8.77766 2.988 9.97044 3.31909 10.7918 3.87101C11.606 4.41811 12.0551 5.17877 12.0551 6.08H12.6551ZM7.33113 2.388C5.80166 2.388 4.48986 2.73691 3.55076 3.3737C2.60419 4.01555 2.03913 4.95112 2.03913 6.08H2.63913C2.63913 5.17688 3.08206 4.41645 3.88749 3.8703C4.70039 3.31909 5.88459 2.988 7.33113 2.988V2.388ZM2.03913 6.08C2.03913 7.20888 2.60419 8.14445 3.55076 8.7863C4.48986 9.42309 5.80166 9.772 7.33113 9.772V9.172C5.88459 9.172 4.70039 8.84091 3.88749 8.2897C3.08206 7.74355 2.63913 6.98312 2.63913 6.08H2.03913ZM7.33113 9.772C8.86059 9.772 10.1798 9.42309 11.1264 8.78701C12.0802 8.14611 12.6551 7.21077 12.6551 6.08H12.0551C12.0551 6.98122 11.606 7.74189 10.7918 8.28899C9.97044 8.8409 8.77766 9.172 7.33113 9.172V9.772ZM0.243125 13.804H6.93113V13.204H0.243125V13.804ZM7.23112 13.504V10.656H6.63112V13.504H7.23112ZM6.93113 10.956H7.69913V10.356H6.93113V10.956ZM7.39913 10.656V13.504H7.99913V10.656H7.39913ZM7.69913 13.804H14.5151V13.204H7.69913V13.804ZM14.2151 13.504V14.288H14.8151V13.504H14.2151ZM14.5151 13.988H0.243125V14.588H14.5151V13.988ZM0.543125 14.288V13.504H-0.0568749V14.288H0.543125ZM29.2191 0.799999H29.5191V0.499999H29.2191V0.799999ZM29.2191 16L29.213 16.2999L29.5191 16.3062V16H29.2191ZM28.4351 15.984L28.1351 15.9837L28.1348 16.2779L28.429 16.2839L28.4351 15.984ZM28.4511 0.799999V0.499999H28.1514L28.1511 0.799683L28.4511 0.799999ZM15.9551 12.224L15.7595 12.4515L15.8993 12.5717L16.0697 12.5013L15.9551 12.224ZM15.1551 11.536L15.0572 11.2524L14.5635 11.4229L14.9595 11.7635L15.1551 11.536ZM18.6751 8.304L18.9283 8.4649L18.9296 8.46283L18.6751 8.304ZM20.8511 1.856L20.8835 1.55776L20.5978 1.52669L20.5545 1.81087L20.8511 1.856ZM21.5871 1.936L21.8864 1.95695L21.9066 1.66895L21.6195 1.63776L21.5871 1.936ZM20.0031 7.28L19.7737 7.08676L20.1952 7.51047L20.0031 7.28ZM25.5391 11.168L25.8048 11.3074L25.88 11.1639L25.8014 11.0223L25.5391 11.168ZM25.0271 12.144L24.7562 12.2728L25.0139 12.815L25.2928 12.2834L25.0271 12.144ZM19.7471 8.08L19.5158 7.88894L19.5007 7.90722L19.4887 7.92766L19.7471 8.08ZM28.9191 0.799999V16H29.5191V0.799999H28.9191ZM29.2252 15.7001L28.4412 15.6841L28.429 16.2839L29.213 16.2999L29.2252 15.7001ZM28.7351 15.9843L28.7511 0.800315L28.1511 0.799683L28.1351 15.9837L28.7351 15.9843ZM28.4511 1.1H29.2191V0.499999H28.4511V1.1ZM16.1507 11.9965L15.3507 11.3085L14.9595 11.7635L15.7595 12.4515L16.1507 11.9965ZM15.253 11.8196C16.6922 11.3227 17.9387 10.0224 18.9283 8.46489L18.4219 8.14311C17.4596 9.65764 16.306 10.8213 15.0572 11.2524L15.253 11.8196ZM18.9296 8.46283C20.2906 6.28197 20.9219 3.38477 21.1477 1.90113L20.5545 1.81087C20.3323 3.27123 19.7156 6.07003 18.4206 8.14517L18.9296 8.46283ZM20.8187 2.15424L21.5547 2.23424L21.6195 1.63776L20.8835 1.55776L20.8187 2.15424ZM21.2879 1.91505C21.2342 2.68212 20.9735 3.84127 20.6578 4.8938C20.5007 5.41744 20.3322 5.90724 20.1728 6.30093C20.0083 6.70719 19.8673 6.97549 19.7737 7.08676L20.2326 7.47324C20.3949 7.28051 20.5659 6.92881 20.729 6.52607C20.8971 6.11075 21.0716 5.60256 21.2325 5.0662C21.5527 3.99873 21.8281 2.78988 21.8864 1.95695L21.2879 1.91505ZM20.1952 7.51047C20.4247 7.31917 20.6752 7.244 20.9311 7.244V6.644C20.5471 6.644 20.1575 6.76083 19.8111 7.04953L20.1952 7.51047ZM20.9311 7.244C21.3068 7.244 21.7308 7.41008 22.1819 7.71164C22.6293 8.01079 23.0771 8.42567 23.4939 8.88065C24.3281 9.79124 25.0068 10.8276 25.2769 11.3137L25.8014 11.0223C25.5114 10.5004 24.8061 9.42476 23.9363 8.47535C23.5012 8.00033 23.017 7.54821 22.5154 7.21286C22.0174 6.87992 21.4754 6.644 20.9311 6.644V7.244ZM25.2735 11.0286L24.7615 12.0046L25.2928 12.2834L25.8048 11.3074L25.2735 11.0286ZM25.2981 12.0152C24.9055 11.1891 24.217 10.0196 23.4231 9.05173C23.0262 8.56789 22.5952 8.12493 22.1538 7.80051C21.7166 7.47925 21.239 7.252 20.7551 7.252V7.852C21.0553 7.852 21.4076 7.99675 21.7985 8.28399C22.185 8.56807 22.5801 8.97011 22.9592 9.43226C23.7172 10.3564 24.3808 11.4829 24.7562 12.2728L25.2981 12.0152ZM20.7551 7.252C20.2836 7.252 19.8672 7.46357 19.5158 7.88894L19.9784 8.27106C20.235 7.96043 20.4907 7.852 20.7551 7.852V7.252ZM19.4887 7.92766C19.0455 8.67941 18.4752 9.54777 17.8382 10.3001C17.196 11.0585 16.5097 11.6703 15.8406 11.9467L16.0697 12.5013C16.8725 12.1697 17.6342 11.4695 18.2961 10.6879C18.963 9.90023 19.5527 9.00059 20.0056 8.23234L19.4887 7.92766ZM34.0191 4.8L34.3191 4.8125V4.8H34.0191ZM34.0191 1.568V1.268H33.7191V1.568H34.0191ZM34.7871 1.568H35.0871V1.268H34.7871V1.568ZM36.1951 5.984L36.1908 6.284H36.1951V5.984ZM44.7711 5.984H45.0711V5.684H44.7711V5.984ZM44.7711 6.752V7.052H45.0711V6.752H44.7711ZM32.1791 9.328V9.028H31.8791V9.328H32.1791ZM46.4671 9.328H46.7671V9.028H46.4671V9.328ZM46.4671 10.112V10.412H46.7671V10.112H46.4671ZM32.1791 10.112H31.8791V10.412H32.1791V10.112ZM33.8591 13.872L34.1591 13.8845V13.872H33.8591ZM33.8591 12.24V11.94H33.5591V12.24H33.8591ZM34.6271 12.24H34.9271V11.94H34.6271V12.24ZM36.0351 15.072L36.0264 15.372H36.0351V15.072ZM45.2671 15.072H45.5671V14.772H45.2671V15.072ZM45.2671 15.824V16.124H45.5671V15.824H45.2671ZM36.1151 6.452C35.3958 6.452 34.9497 6.26504 34.6871 5.99774C34.4253 5.73132 34.2971 5.33543 34.3189 4.81249L33.7194 4.78751C33.6932 5.41657 33.8449 5.99668 34.2591 6.41826C34.6725 6.83896 35.2985 7.052 36.1151 7.052V6.452ZM34.3191 4.8V1.568H33.7191V4.8H34.3191ZM34.0191 1.868H34.7871V1.268H34.0191V1.868ZM34.4871 1.568V4.576H35.0871V1.568H34.4871ZM34.4871 4.576C34.4871 5.09242 34.5606 5.54564 34.8602 5.85923C35.1617 6.17477 35.6208 6.27571 36.1908 6.28397L36.1995 5.68403C35.6655 5.67629 35.4206 5.57723 35.294 5.44476C35.1656 5.31036 35.0871 5.06758 35.0871 4.576H34.4871ZM36.1951 6.284H44.7711V5.684H36.1951V6.284ZM44.4711 5.984V6.752H45.0711V5.984H44.4711ZM44.7711 6.452H36.1151V7.052H44.7711V6.452ZM32.1791 9.628H46.4671V9.028H32.1791V9.628ZM46.1671 9.328V10.112H46.7671V9.328H46.1671ZM46.4671 9.812H32.1791V10.412H46.4671V9.812ZM32.4791 10.112V9.328H31.8791V10.112H32.4791ZM35.9551 15.524C35.2358 15.524 34.7897 15.337 34.5271 15.0697C34.2653 14.8033 34.1371 14.4074 34.1589 13.8845L33.5594 13.8595C33.5332 14.4886 33.6849 15.0687 34.0991 15.4903C34.5125 15.911 35.1385 16.124 35.9551 16.124V15.524ZM34.1591 13.872V12.24H33.5591V13.872H34.1591ZM33.8591 12.54H34.6271V11.94H33.8591V12.54ZM34.3271 12.24V13.664H34.9271V12.24H34.3271ZM34.3271 13.664C34.3271 14.1806 34.4006 14.6305 34.7011 14.9422C35.0016 15.2539 35.4591 15.3554 36.0264 15.3719L36.0438 14.7721C35.5071 14.7566 35.2607 14.6581 35.1331 14.5258C35.0056 14.3935 34.9271 14.1554 34.9271 13.664H34.3271ZM36.0351 15.372H45.2671V14.772H36.0351V15.372ZM44.9671 15.072V15.824H45.5671V15.072H44.9671ZM45.2671 15.524H35.9551V16.124H45.2671V15.524ZM66.4449 0.799999H66.7449V0.499999H66.4449V0.799999ZM66.4449 9.184V9.484H66.7449V9.184H66.4449ZM65.6769 9.184H65.3769V9.484H65.6769V9.184ZM65.6769 0.799999V0.499999H65.3769V0.799999H65.6769ZM54.4769 2.976L54.1769 2.96975L54.1706 3.276H54.4769V2.976ZM54.4929 2.208V1.908H54.1991L54.1929 2.20175L54.4929 2.208ZM59.4369 2.208V2.50803L59.441 2.50797L59.4369 2.208ZM61.2449 3.888L60.9461 3.86124L60.946 3.86163L61.2449 3.888ZM55.0689 10.368L54.8447 10.5673L55.004 10.7466L55.214 10.6306L55.0689 10.368ZM54.4289 9.648L54.3022 9.37607L53.937 9.54622L54.2047 9.84731L54.4289 9.648ZM60.3809 4.272L60.6684 4.3577L60.6684 4.35749L60.3809 4.272ZM57.7409 13.68L57.735 13.9799L58.0409 13.9859V13.68H57.7409ZM57.7409 13.36H58.0409V13.06H57.7409V13.36ZM56.4769 13.36H56.1769V13.66H56.4769V13.36ZM56.4769 12.608V12.308H56.1769V12.608H56.4769ZM65.6129 12.608V12.908H65.9129V12.608H65.6129ZM65.6129 11.024H65.9129V10.724H65.6129V11.024ZM56.7809 11.024H56.4809V11.324H56.7809V11.024ZM56.7809 10.272V9.972H56.4809V10.272H56.7809ZM66.3809 10.272H66.6809V9.972H66.3809V10.272ZM66.3809 13.36V13.66H66.6809V13.36H66.3809ZM59.0529 13.36V13.06H59.0356L59.0185 13.062L59.0529 13.36ZM59.0689 15.024L59.0652 15.324H59.0689V15.024ZM66.8449 15.024H67.1449V14.724H66.8449V15.024ZM66.8449 15.792V16.092H67.1449V15.792H66.8449ZM58.9889 15.792L58.9858 16.092H58.9889V15.792ZM66.1449 0.799999V9.184H66.7449V0.799999H66.1449ZM66.4449 8.884H65.6769V9.484H66.4449V8.884ZM65.9769 9.184V0.799999H65.3769V9.184H65.9769ZM65.6769 1.1H66.4449V0.499999H65.6769V1.1ZM54.7768 2.98225L54.7928 2.21425L54.1929 2.20175L54.1769 2.96975L54.7768 2.98225ZM54.4929 2.508H59.4369V1.908H54.4929V2.508ZM59.441 2.50797C59.9749 2.50066 60.3683 2.64027 60.6135 2.86236C60.851 3.07747 60.9871 3.40353 60.9461 3.86124L61.5437 3.91476C61.5987 3.30047 61.4147 2.77853 61.0163 2.41764C60.6255 2.06373 60.0669 1.89934 59.4328 1.90803L59.441 2.50797ZM60.946 3.86163C60.8597 4.8405 60.1402 5.97638 59.0129 7.10168C57.8965 8.21619 56.4243 9.27618 54.9238 10.1054L55.214 10.6306C56.7534 9.77982 58.2733 8.68781 59.4368 7.52632C60.5895 6.37562 61.4381 5.11149 61.5437 3.91437L60.946 3.86163ZM55.2931 10.1687L54.6531 9.44869L54.2047 9.84731L54.8447 10.5673L55.2931 10.1687ZM54.5556 9.91993C56.1106 9.19534 57.5004 8.2504 58.5677 7.27104C59.6275 6.2985 60.3977 5.26591 60.6684 4.3577L60.0934 4.1863C59.8681 4.94209 59.1902 5.88549 58.162 6.82896C57.1413 7.7656 55.8032 8.67666 54.3022 9.37607L54.5556 9.91993ZM60.6684 4.35749C60.7595 4.05121 60.8371 3.62523 60.649 3.26359C60.4433 2.86785 59.9964 2.676 59.3409 2.676V3.276C59.9014 3.276 60.0625 3.43615 60.1167 3.54041C60.1887 3.67877 60.1783 3.90079 60.0933 4.18651L60.6684 4.35749ZM59.3409 2.676H54.4769V3.276H59.3409V2.676ZM56.8729 14.624C56.8729 14.4283 57.0984 13.9675 57.735 13.9799L57.7468 13.3801C56.7514 13.3605 56.2729 14.1157 56.2729 14.624H56.8729ZM58.0409 13.68V13.36H57.4409V13.68H58.0409ZM57.7409 13.06H56.4769V13.66H57.7409V13.06ZM56.7769 13.36V12.608H56.1769V13.36H56.7769ZM56.4769 12.908H65.6129V12.308H56.4769V12.908ZM65.9129 12.608V11.024H65.3129V12.608H65.9129ZM65.6129 10.724H56.7809V11.324H65.6129V10.724ZM57.0809 11.024V10.272H56.4809V11.024H57.0809ZM56.7809 10.572H66.3809V9.972H56.7809V10.572ZM66.0809 10.272V13.36H66.6809V10.272H66.0809ZM66.3809 13.06H59.0529V13.66H66.3809V13.06ZM59.0185 13.062C58.3605 13.1379 57.8777 13.3182 57.5512 13.5583C57.2251 13.7981 57.0409 14.1114 57.0409 14.432H57.6409C57.6409 14.3526 57.6887 14.2019 57.9066 14.0417C58.1241 13.8818 58.4972 13.7261 59.0873 13.658L59.0185 13.062ZM57.0409 14.432C57.0409 14.6077 57.0744 14.7872 57.1892 14.9392C57.304 15.0914 57.4677 15.1729 57.6376 15.2208C57.8051 15.2679 58.0073 15.2902 58.2353 15.303C58.4658 15.316 58.7427 15.32 59.0652 15.324L59.0726 14.724C58.747 14.72 58.4839 14.716 58.2689 14.704C58.0515 14.6918 57.9026 14.6721 57.8002 14.6432C57.7001 14.6151 57.6747 14.5866 57.6681 14.5778C57.6613 14.5688 57.6409 14.5363 57.6409 14.432H57.0409ZM59.0689 15.324H66.8449V14.724H59.0689V15.324ZM66.5449 15.024V15.792H67.1449V15.024H66.5449ZM66.8449 15.492H58.9889V16.092H66.8449V15.492ZM58.992 15.492C58.2057 15.4839 57.6588 15.4451 57.3091 15.307C57.1444 15.2419 57.0438 15.1619 56.9809 15.0686C56.9177 14.9748 56.8729 14.8379 56.8729 14.624H56.2729C56.2729 14.9221 56.336 15.1852 56.4833 15.4039C56.631 15.6231 56.8434 15.7681 57.0886 15.865C57.559 16.0509 58.2201 16.0841 58.9858 16.092L58.992 15.492Z" fill="#333333" mask="url(#path-1-outside-1_1_46)"/>
</svg>
