<svg width="121" height="16" viewBox="0 0 121 16" fill="none" xmlns="http://www.w3.org/2000/svg">
<mask id="path-1-outside-1_1_129" maskUnits="userSpaceOnUse" x="-1" y="0" width="123" height="17" fill="black">
<rect fill="white" x="-1" width="123" height="17"/>
<path d="M11.3023 0.799999V6.56H14.1023V7.328H11.3023V15.824H10.5183L10.5343 0.799999H11.3023ZM0.07025 12.912V2.208H7.27025V9.76C7.30225 10.864 6.56625 11.552 5.68625 12V12.16H7.27025V12.912H0.07025ZM0.83825 12.16H4.42225C5.63825 11.984 6.51825 10.816 6.51825 9.6V2.976H0.83825V12.16ZM17.0143 4.656C17.0143 2.896 19.2383 1.712 22.5663 1.712C25.8943 1.712 28.1183 2.896 28.1183 4.656C28.1183 6.4 25.8943 7.6 22.5663 7.6C19.2383 7.6 17.0143 6.4 17.0143 4.656ZM27.2863 4.64C27.2863 3.296 25.2863 2.432 22.5663 2.432C19.8463 2.432 17.8463 3.296 17.8463 4.64C17.8463 6 19.8463 6.848 22.5663 6.848C25.2863 6.848 27.2863 6 27.2863 4.64ZM15.3823 8.944H29.6703V9.728H15.3823V8.944ZM27.9103 11.04V12.672C27.9263 13.776 27.1903 14.464 26.3103 14.912V15.072H27.9103V15.824H17.5263V11.04H27.9103ZM18.2783 15.072H25.0463C26.2783 14.896 27.1423 13.728 27.1423 12.512V11.792H18.2783V15.072ZM49.648 0.799999V11.104H48.864V5.728H45.504V4.976H48.88V0.799999H49.648ZM37.808 2.976V2.208H46V2.976H42.304C42.032 3.904 41.6 4.976 41.04 5.92C41.312 5.792 41.584 5.728 41.872 5.728C43.68 5.728 45.552 8.144 46 8.912L45.504 9.904C44.768 8.384 42.912 6.208 41.536 6.208C41.2 6.208 40.88 6.336 40.624 6.64C40 7.584 39.376 8.56 37.424 10.048L36.704 9.44C38.944 8.192 40.784 5.44 41.472 2.976H37.808ZM41.44 15.824C39.904 15.824 39.312 15.024 39.36 13.872V11.76H40.112V13.664C40.112 14.672 40.416 15.04 41.536 15.072H49.76V15.824H41.44ZM63.328 1.28V6.56H65.952V0.799999H66.736V16L65.952 15.984V7.328H63.328V15.2L62.544 15.184V1.28H63.328ZM55.2 2.688V1.936H58.88V2.688H55.2ZM53.68 4.848V4.096H60.544V4.848H53.68ZM53.92 9.824C53.92 7.488 55.216 5.92 57.136 5.92C59.056 5.92 60.336 7.488 60.336 9.824C60.336 12.176 59.056 13.744 57.136 13.744C55.216 13.744 53.92 12.176 53.92 9.824ZM54.672 9.824C54.672 11.68 55.616 12.992 57.136 12.992C58.656 12.992 59.6 11.68 59.6 9.824C59.6 7.984 58.656 6.672 57.136 6.672C55.616 6.672 54.672 7.984 54.672 9.824ZM70.4 3.376V2.624H81.584V3.376H76.4C76.048 3.904 75.648 4.576 75.312 5.024C75.52 4.976 75.728 4.944 75.936 4.944C77.808 4.944 80.24 6.784 81.984 8.144L81.52 9.104C79.632 7.248 77.424 5.472 75.776 5.472C75.344 5.472 74.96 5.584 74.624 5.856C73.504 7.216 72.176 8.704 70.528 9.216L69.664 8.528C72.16 7.936 74.448 5.504 75.6 3.376H70.4ZM76.56 15.984H75.792V11.536H68.976V10.752H83.264V11.536H76.56V15.984ZM97.648 0.799999V9.184H96.88V0.799999H97.648ZM88.368 5.184C89.264 3.792 89.6 2.576 89.872 1.344L90.64 1.536C90.416 2.688 89.92 4.064 89.2 5.28C89.472 5.152 89.744 5.088 90.032 5.088C91.84 5.088 93.712 7.504 94.16 8.272L93.664 9.264C92.928 7.744 91.072 5.568 89.696 5.568C89.36 5.568 89.04 5.696 88.784 6C88.16 6.944 87.536 7.92 85.584 9.408L84.864 8.8C86.576 7.84 87.504 6.544 88.368 5.184ZM87.616 14.624C87.616 14.272 87.968 13.664 88.784 13.68V13.36H87.52V12.608H96.816V11.024H87.824V10.272H97.584V13.36H90.096C88.848 13.504 88.384 14.032 88.384 14.432C88.384 14.992 88.816 15.008 90.112 15.024H98.048V15.792H90.032C88.48 15.776 87.616 15.648 87.616 14.624ZM119.098 4.32C119.098 4.848 119.05 6.32 118.938 7.488H118.17C118.282 6.368 118.33 4.88 118.33 4.4C118.314 3.28 117.93 2.976 116.922 2.976H108.602V2.208H117.146C118.298 2.176 119.098 2.768 119.098 4.32ZM106.57 8.944H111.978V5.232H112.746V8.944H120.858V9.728H106.57V8.944ZM113.306 11.024L114.01 11.392C113.738 11.824 113.45 12.224 113.082 12.576C113.354 12.48 113.658 12.448 113.962 12.448C115.834 12.448 118.346 13.888 119.914 15.04L119.45 15.984C117.354 14.176 115.194 12.944 113.594 12.944C113.082 12.944 112.618 13.072 112.234 13.344C111.05 14.4 109.498 15.6 108.122 15.936L107.306 15.232C109.658 14.736 112.042 13.056 113.306 11.024Z"/>
</mask>
<path d="M11.3023 0.799999V6.56H14.1023V7.328H11.3023V15.824H10.5183L10.5343 0.799999H11.3023ZM0.07025 12.912V2.208H7.27025V9.76C7.30225 10.864 6.56625 11.552 5.68625 12V12.16H7.27025V12.912H0.07025ZM0.83825 12.16H4.42225C5.63825 11.984 6.51825 10.816 6.51825 9.6V2.976H0.83825V12.16ZM17.0143 4.656C17.0143 2.896 19.2383 1.712 22.5663 1.712C25.8943 1.712 28.1183 2.896 28.1183 4.656C28.1183 6.4 25.8943 7.6 22.5663 7.6C19.2383 7.6 17.0143 6.4 17.0143 4.656ZM27.2863 4.64C27.2863 3.296 25.2863 2.432 22.5663 2.432C19.8463 2.432 17.8463 3.296 17.8463 4.64C17.8463 6 19.8463 6.848 22.5663 6.848C25.2863 6.848 27.2863 6 27.2863 4.64ZM15.3823 8.944H29.6703V9.728H15.3823V8.944ZM27.9103 11.04V12.672C27.9263 13.776 27.1903 14.464 26.3103 14.912V15.072H27.9103V15.824H17.5263V11.04H27.9103ZM18.2783 15.072H25.0463C26.2783 14.896 27.1423 13.728 27.1423 12.512V11.792H18.2783V15.072ZM49.648 0.799999V11.104H48.864V5.728H45.504V4.976H48.88V0.799999H49.648ZM37.808 2.976V2.208H46V2.976H42.304C42.032 3.904 41.6 4.976 41.04 5.92C41.312 5.792 41.584 5.728 41.872 5.728C43.68 5.728 45.552 8.144 46 8.912L45.504 9.904C44.768 8.384 42.912 6.208 41.536 6.208C41.2 6.208 40.88 6.336 40.624 6.64C40 7.584 39.376 8.56 37.424 10.048L36.704 9.44C38.944 8.192 40.784 5.44 41.472 2.976H37.808ZM41.44 15.824C39.904 15.824 39.312 15.024 39.36 13.872V11.76H40.112V13.664C40.112 14.672 40.416 15.04 41.536 15.072H49.76V15.824H41.44ZM63.328 1.28V6.56H65.952V0.799999H66.736V16L65.952 15.984V7.328H63.328V15.2L62.544 15.184V1.28H63.328ZM55.2 2.688V1.936H58.88V2.688H55.2ZM53.68 4.848V4.096H60.544V4.848H53.68ZM53.92 9.824C53.92 7.488 55.216 5.92 57.136 5.92C59.056 5.92 60.336 7.488 60.336 9.824C60.336 12.176 59.056 13.744 57.136 13.744C55.216 13.744 53.92 12.176 53.92 9.824ZM54.672 9.824C54.672 11.68 55.616 12.992 57.136 12.992C58.656 12.992 59.6 11.68 59.6 9.824C59.6 7.984 58.656 6.672 57.136 6.672C55.616 6.672 54.672 7.984 54.672 9.824ZM70.4 3.376V2.624H81.584V3.376H76.4C76.048 3.904 75.648 4.576 75.312 5.024C75.52 4.976 75.728 4.944 75.936 4.944C77.808 4.944 80.24 6.784 81.984 8.144L81.52 9.104C79.632 7.248 77.424 5.472 75.776 5.472C75.344 5.472 74.96 5.584 74.624 5.856C73.504 7.216 72.176 8.704 70.528 9.216L69.664 8.528C72.16 7.936 74.448 5.504 75.6 3.376H70.4ZM76.56 15.984H75.792V11.536H68.976V10.752H83.264V11.536H76.56V15.984ZM97.648 0.799999V9.184H96.88V0.799999H97.648ZM88.368 5.184C89.264 3.792 89.6 2.576 89.872 1.344L90.64 1.536C90.416 2.688 89.92 4.064 89.2 5.28C89.472 5.152 89.744 5.088 90.032 5.088C91.84 5.088 93.712 7.504 94.16 8.272L93.664 9.264C92.928 7.744 91.072 5.568 89.696 5.568C89.36 5.568 89.04 5.696 88.784 6C88.16 6.944 87.536 7.92 85.584 9.408L84.864 8.8C86.576 7.84 87.504 6.544 88.368 5.184ZM87.616 14.624C87.616 14.272 87.968 13.664 88.784 13.68V13.36H87.52V12.608H96.816V11.024H87.824V10.272H97.584V13.36H90.096C88.848 13.504 88.384 14.032 88.384 14.432C88.384 14.992 88.816 15.008 90.112 15.024H98.048V15.792H90.032C88.48 15.776 87.616 15.648 87.616 14.624ZM119.098 4.32C119.098 4.848 119.05 6.32 118.938 7.488H118.17C118.282 6.368 118.33 4.88 118.33 4.4C118.314 3.28 117.93 2.976 116.922 2.976H108.602V2.208H117.146C118.298 2.176 119.098 2.768 119.098 4.32ZM106.57 8.944H111.978V5.232H112.746V8.944H120.858V9.728H106.57V8.944ZM113.306 11.024L114.01 11.392C113.738 11.824 113.45 12.224 113.082 12.576C113.354 12.48 113.658 12.448 113.962 12.448C115.834 12.448 118.346 13.888 119.914 15.04L119.45 15.984C117.354 14.176 115.194 12.944 113.594 12.944C113.082 12.944 112.618 13.072 112.234 13.344C111.05 14.4 109.498 15.6 108.122 15.936L107.306 15.232C109.658 14.736 112.042 13.056 113.306 11.024Z" fill="#37794F"/>
<path d="M11.3023 0.799999H11.6023V0.499999H11.3023V0.799999ZM11.3023 6.56H11.0023V6.86H11.3023V6.56ZM14.1023 6.56H14.4023V6.26H14.1023V6.56ZM14.1023 7.328V7.628H14.4023V7.328H14.1023ZM11.3023 7.328V7.028H11.0023V7.328H11.3023ZM11.3023 15.824V16.124H11.6023V15.824H11.3023ZM10.5183 15.824L10.2183 15.8237L10.2179 16.124H10.5183V15.824ZM10.5343 0.799999V0.499999H10.2346L10.2343 0.79968L10.5343 0.799999ZM0.07025 12.912H-0.22975V13.212H0.07025V12.912ZM0.07025 2.208V1.908H-0.22975V2.208H0.07025ZM7.27025 2.208H7.57025V1.908H7.27025V2.208ZM7.27025 9.76H6.97012L6.97038 9.76869L7.27025 9.76ZM5.68625 12L5.55015 11.7327L5.38625 11.8161V12H5.68625ZM5.68625 12.16H5.38625V12.46H5.68625V12.16ZM7.27025 12.16H7.57025V11.86H7.27025V12.16ZM7.27025 12.912V13.212H7.57025V12.912H7.27025ZM0.83825 12.16H0.53825V12.46H0.83825V12.16ZM4.42225 12.16V12.46H4.44385L4.46522 12.4569L4.42225 12.16ZM6.51825 2.976H6.81825V2.676H6.51825V2.976ZM0.83825 2.976V2.676H0.53825V2.976H0.83825ZM11.0023 0.799999V6.56H11.6023V0.799999H11.0023ZM11.3023 6.86H14.1023V6.26H11.3023V6.86ZM13.8023 6.56V7.328H14.4023V6.56H13.8023ZM14.1023 7.028H11.3023V7.628H14.1023V7.028ZM11.0023 7.328V15.824H11.6023V7.328H11.0023ZM11.3023 15.524H10.5183V16.124H11.3023V15.524ZM10.8183 15.8243L10.8343 0.800319L10.2343 0.79968L10.2183 15.8237L10.8183 15.8243ZM10.5343 1.1H11.3023V0.499999H10.5343V1.1ZM0.37025 12.912V2.208H-0.22975V12.912H0.37025ZM0.07025 2.508H7.27025V1.908H0.07025V2.508ZM6.97025 2.208V9.76H7.57025V2.208H6.97025ZM6.97038 9.76869C6.99737 10.7 6.38943 11.3054 5.55015 11.7327L5.82236 12.2673C6.74307 11.7986 7.60713 11.028 7.57012 9.75131L6.97038 9.76869ZM5.38625 12V12.16H5.98625V12H5.38625ZM5.68625 12.46H7.27025V11.86H5.68625V12.46ZM6.97025 12.16V12.912H7.57025V12.16H6.97025ZM7.27025 12.612H0.07025V13.212H7.27025V12.612ZM0.83825 12.46H4.42225V11.86H0.83825V12.46ZM4.46522 12.4569C5.84914 12.2566 6.81825 10.9435 6.81825 9.6H6.21825C6.21825 10.6885 5.42736 11.7114 4.37928 11.8631L4.46522 12.4569ZM6.81825 9.6V2.976H6.21825V9.6H6.81825ZM6.51825 2.676H0.83825V3.276H6.51825V2.676ZM0.53825 2.976V12.16H1.13825V2.976H0.53825ZM15.3822 8.944V8.644H15.0823V8.944H15.3822ZM29.6702 8.944H29.9703V8.644H29.6702V8.944ZM29.6702 9.728V10.028H29.9703V9.728H29.6702ZM15.3822 9.728H15.0823V10.028H15.3822V9.728ZM27.9103 11.04H28.2103V10.74H27.9103V11.04ZM27.9103 12.672H27.6102L27.6103 12.6763L27.9103 12.672ZM26.3102 14.912L26.1741 14.6447L26.0103 14.7281V14.912H26.3102ZM26.3102 15.072H26.0103V15.372H26.3102V15.072ZM27.9103 15.072H28.2103V14.772H27.9103V15.072ZM27.9103 15.824V16.124H28.2103V15.824H27.9103ZM17.5263 15.824H17.2262V16.124H17.5263V15.824ZM17.5263 11.04V10.74H17.2262V11.04H17.5263ZM18.2782 15.072H17.9783V15.372H18.2782V15.072ZM25.0462 15.072V15.372H25.0676L25.0887 15.369L25.0462 15.072ZM27.1423 11.792H27.4423V11.492H27.1423V11.792ZM18.2782 11.792V11.492H17.9783V11.792H18.2782ZM17.3143 4.656C17.3143 3.92462 17.7705 3.27332 18.6829 2.78898C19.5976 2.30342 20.9325 2.012 22.5662 2.012V1.412C20.872 1.412 19.4309 1.71258 18.4016 2.25902C17.37 2.80668 16.7143 3.62738 16.7143 4.656H17.3143ZM22.5662 2.012C24.2 2.012 25.5349 2.30342 26.4496 2.78898C27.362 3.27332 27.8183 3.92462 27.8183 4.656H28.4183C28.4183 3.62738 27.7625 2.80668 26.7309 2.25902C25.7016 1.71258 24.2605 1.412 22.5662 1.412V2.012ZM27.8183 4.656C27.8183 5.37886 27.3626 6.03047 26.4492 6.51725C25.5343 7.00479 24.1994 7.3 22.5662 7.3V7.9C24.2611 7.9 25.7022 7.59521 26.7313 7.04675C27.7619 6.49753 28.4183 5.67714 28.4183 4.656H27.8183ZM22.5662 7.3C20.9331 7.3 19.5982 7.00479 18.6833 6.51725C17.7699 6.03047 17.3143 5.37886 17.3143 4.656H16.7143C16.7143 5.67714 17.3706 6.49753 18.4012 7.04675C19.4303 7.59521 20.8714 7.9 22.5662 7.9V7.3ZM27.5863 4.64C27.5863 3.7935 26.9537 3.16267 26.071 2.75916C25.1791 2.35146 23.9527 2.132 22.5662 2.132V2.732C23.8998 2.732 25.0334 2.94454 25.8215 3.30484C26.6188 3.66933 26.9863 4.1425 26.9863 4.64H27.5863ZM22.5662 2.132C21.1798 2.132 19.9534 2.35146 19.0615 2.75916C18.1788 3.16267 17.5462 3.7935 17.5462 4.64H18.1462C18.1462 4.1425 18.5137 3.66933 19.311 3.30484C20.0991 2.94454 21.2327 2.732 22.5662 2.732V2.132ZM17.5462 4.64C17.5462 5.49388 18.1779 6.12502 19.0621 6.52709C19.9541 6.93276 21.1805 7.148 22.5662 7.148V6.548C21.232 6.548 20.0984 6.33924 19.3104 5.98091C18.5146 5.61898 18.1462 5.14611 18.1462 4.64H17.5462ZM22.5662 7.148C23.952 7.148 25.1784 6.93276 26.0704 6.52709C26.9546 6.12502 27.5863 5.49389 27.5863 4.64H26.9863C26.9863 5.14611 26.6179 5.61898 25.8221 5.98091C25.0341 6.33924 23.9005 6.548 22.5662 6.548V7.148ZM15.3822 9.244H29.6702V8.644H15.3822V9.244ZM29.3703 8.944V9.728H29.9703V8.944H29.3703ZM29.6702 9.428H15.3822V10.028H29.6702V9.428ZM15.6823 9.728V8.944H15.0823V9.728H15.6823ZM27.6103 11.04V12.672H28.2103V11.04H27.6103ZM27.6103 12.6763C27.6238 13.611 27.0127 14.2178 26.1741 14.6447L26.4464 15.1793C27.3678 14.7102 28.2287 13.941 28.2102 12.6677L27.6103 12.6763ZM26.0103 14.912V15.072H26.6103V14.912H26.0103ZM26.3102 15.372H27.9103V14.772H26.3102V15.372ZM27.6103 15.072V15.824H28.2103V15.072H27.6103ZM27.9103 15.524H17.5263V16.124H27.9103V15.524ZM17.8263 15.824V11.04H17.2262V15.824H17.8263ZM17.5263 11.34H27.9103V10.74H17.5263V11.34ZM18.2782 15.372H25.0462V14.772H18.2782V15.372ZM25.0887 15.369C26.4906 15.1687 27.4423 13.8538 27.4423 12.512H26.8423C26.8423 13.6022 26.0659 14.6233 25.0038 14.775L25.0887 15.369ZM27.4423 12.512V11.792H26.8423V12.512H27.4423ZM27.1423 11.492H18.2782V12.092H27.1423V11.492ZM17.9783 11.792V15.072H18.5783V11.792H17.9783ZM49.648 0.799999H49.948V0.499999H49.648V0.799999ZM49.648 11.104V11.404H49.948V11.104H49.648ZM48.864 11.104H48.564V11.404H48.864V11.104ZM48.864 5.728H49.164V5.428H48.864V5.728ZM45.504 5.728H45.204V6.028H45.504V5.728ZM45.504 4.976V4.676H45.204V4.976H45.504ZM48.88 4.976V5.276H49.18V4.976H48.88ZM48.88 0.799999V0.499999H48.58V0.799999H48.88ZM37.808 2.976H37.508V3.276H37.808V2.976ZM37.808 2.208V1.908H37.508V2.208H37.808ZM46 2.208H46.3V1.908H46V2.208ZM46 2.976V3.276H46.3V2.976H46ZM42.304 2.976V2.676H42.0793L42.0161 2.89162L42.304 2.976ZM41.04 5.92L40.782 5.76694L40.2832 6.60768L41.1677 6.19145L41.04 5.92ZM46 8.912L46.2683 9.04616L46.3409 8.90101L46.2591 8.76084L46 8.912ZM45.504 9.904L45.234 10.0347L45.4997 10.5835L45.7723 10.0382L45.504 9.904ZM40.624 6.64L40.3945 6.44676L40.3833 6.46006L40.3737 6.47457L40.624 6.64ZM37.424 10.048L37.2304 10.2772L37.4144 10.4325L37.6059 10.2866L37.424 10.048ZM36.704 9.44L36.558 9.17793L36.1788 9.38918L36.5104 9.66921L36.704 9.44ZM41.472 2.976L41.7609 3.05668L41.8672 2.676H41.472V2.976ZM39.36 13.872L39.66 13.8845V13.872H39.36ZM39.36 11.76V11.46H39.06V11.76H39.36ZM40.112 11.76H40.412V11.46H40.112V11.76ZM41.536 15.072L41.5274 15.372H41.536V15.072ZM49.76 15.072H50.06V14.772H49.76V15.072ZM49.76 15.824V16.124H50.06V15.824H49.76ZM49.348 0.799999V11.104H49.948V0.799999H49.348ZM49.648 10.804H48.864V11.404H49.648V10.804ZM49.164 11.104V5.728H48.564V11.104H49.164ZM48.864 5.428H45.504V6.028H48.864V5.428ZM45.804 5.728V4.976H45.204V5.728H45.804ZM45.504 5.276H48.88V4.676H45.504V5.276ZM49.18 4.976V0.799999H48.58V4.976H49.18ZM48.88 1.1H49.648V0.499999H48.88V1.1ZM38.108 2.976V2.208H37.508V2.976H38.108ZM37.808 2.508H46V1.908H37.808V2.508ZM45.7 2.208V2.976H46.3V2.208H45.7ZM46 2.676H42.304V3.276H46V2.676ZM42.0161 2.89162C41.7499 3.79987 41.3271 4.84804 40.782 5.76694L41.298 6.07306C41.8729 5.10396 42.3141 4.00813 42.5919 3.06038L42.0161 2.89162ZM41.1677 6.19145C41.4028 6.08084 41.6314 6.028 41.872 6.028V5.428C41.5366 5.428 41.2212 5.50316 40.9123 5.64855L41.1677 6.19145ZM41.872 6.028C42.6551 6.028 43.5017 6.56103 44.2413 7.25132C44.9697 7.93116 45.5314 8.70414 45.7409 9.06316L46.2591 8.76084C46.0206 8.35186 45.4223 7.53284 44.6507 6.81268C43.8903 6.10297 42.8969 5.428 41.872 5.428V6.028ZM45.7317 8.77784L45.2357 9.76984L45.7723 10.0382L46.2683 9.04616L45.7317 8.77784ZM45.774 9.77326C45.3907 8.98162 44.7228 8.03076 43.973 7.27474C43.5974 6.89607 43.194 6.55889 42.7875 6.31461C42.3842 6.07223 41.9556 5.908 41.536 5.908V6.508C41.8044 6.508 42.1238 6.61576 42.4785 6.82889C42.83 7.04011 43.1946 7.34193 43.547 7.69726C44.2532 8.40924 44.8813 9.30638 45.234 10.0347L45.774 9.77326ZM41.536 5.908C41.1154 5.908 40.71 6.07212 40.3945 6.44676L40.8535 6.83324C41.05 6.59988 41.2846 6.508 41.536 6.508V5.908ZM40.3737 6.47457C39.7598 7.40339 39.1574 8.34941 37.2421 9.80941L37.6059 10.2866C39.5946 8.77059 40.2402 7.76461 40.8743 6.80543L40.3737 6.47457ZM37.6176 9.81879L36.8976 9.21079L36.5104 9.66921L37.2304 10.2772L37.6176 9.81879ZM36.85 9.70207C39.1762 8.40606 41.057 5.57785 41.7609 3.05668L41.1831 2.89532C40.511 5.30215 38.7118 7.97794 36.558 9.17793L36.85 9.70207ZM41.472 2.676H37.808V3.276H41.472V2.676ZM41.44 15.524C40.7206 15.524 40.2795 15.3371 40.0212 15.071C39.7633 14.8053 39.6379 14.4094 39.6597 13.8845L39.0603 13.8595C39.0341 14.4866 39.1807 15.0667 39.5908 15.489C40.0005 15.9109 40.6234 16.124 41.44 16.124V15.524ZM39.66 13.872V11.76H39.06V13.872H39.66ZM39.36 12.06H40.112V11.46H39.36V12.06ZM39.812 11.76V13.664H40.412V11.76H39.812ZM39.812 13.664C39.812 14.1805 39.8855 14.6313 40.189 14.9432C40.4917 15.2543 40.953 15.3555 41.5274 15.3719L41.5446 14.7721C40.999 14.7565 40.7483 14.6577 40.619 14.5248C40.4905 14.3927 40.412 14.1555 40.412 13.664H39.812ZM41.536 15.372H49.76V14.772H41.536V15.372ZM49.46 15.072V15.824H50.06V15.072H49.46ZM49.76 15.524H41.44V16.124H49.76V15.524ZM63.328 1.28H63.628V0.98H63.328V1.28ZM63.328 6.56H63.028V6.86H63.328V6.56ZM65.952 6.56V6.86H66.252V6.56H65.952ZM65.952 0.799999V0.499999H65.652V0.799999H65.952ZM66.736 0.799999H67.036V0.499999H66.736V0.799999ZM66.736 16L66.7299 16.2999L67.036 16.3062V16H66.736ZM65.952 15.984H65.652V16.2779L65.9459 16.2839L65.952 15.984ZM65.952 7.328H66.252V7.028H65.952V7.328ZM63.328 7.328V7.028H63.028V7.328H63.328ZM63.328 15.2L63.3219 15.4999L63.628 15.5062V15.2H63.328ZM62.544 15.184H62.244V15.4779L62.5379 15.4839L62.544 15.184ZM62.544 1.28V0.98H62.244V1.28H62.544ZM55.2 2.688H54.9V2.988H55.2V2.688ZM55.2 1.936V1.636H54.9V1.936H55.2ZM58.88 1.936H59.18V1.636H58.88V1.936ZM58.88 2.688V2.988H59.18V2.688H58.88ZM53.68 4.848H53.38V5.148H53.68V4.848ZM53.68 4.096V3.796H53.38V4.096H53.68ZM60.544 4.096H60.844V3.796H60.544V4.096ZM60.544 4.848V5.148H60.844V4.848H60.544ZM63.028 1.28V6.56H63.628V1.28H63.028ZM63.328 6.86H65.952V6.26H63.328V6.86ZM66.252 6.56V0.799999H65.652V6.56H66.252ZM65.952 1.1H66.736V0.499999H65.952V1.1ZM66.436 0.799999V16H67.036V0.799999H66.436ZM66.7421 15.7001L65.9581 15.6841L65.9459 16.2839L66.7299 16.2999L66.7421 15.7001ZM66.252 15.984V7.328H65.652V15.984H66.252ZM65.952 7.028H63.328V7.628H65.952V7.028ZM63.028 7.328V15.2H63.628V7.328H63.028ZM63.3341 14.9001L62.5501 14.8841L62.5379 15.4839L63.3219 15.4999L63.3341 14.9001ZM62.844 15.184V1.28H62.244V15.184H62.844ZM62.544 1.58H63.328V0.98H62.544V1.58ZM55.5 2.688V1.936H54.9V2.688H55.5ZM55.2 2.236H58.88V1.636H55.2V2.236ZM58.58 1.936V2.688H59.18V1.936H58.58ZM58.88 2.388H55.2V2.988H58.88V2.388ZM53.98 4.848V4.096H53.38V4.848H53.98ZM53.68 4.396H60.544V3.796H53.68V4.396ZM60.244 4.096V4.848H60.844V4.096H60.244ZM60.544 4.548H53.68V5.148H60.544V4.548ZM54.22 9.824C54.22 8.70943 54.5291 7.80581 55.0395 7.18685C55.5458 6.57276 56.2645 6.22 57.136 6.22V5.62C56.0875 5.62 55.1982 6.05124 54.5765 6.80515C53.9589 7.55419 53.62 8.60257 53.62 9.824H54.22ZM57.136 6.22C58.0072 6.22 58.7216 6.57253 59.2239 7.18605C59.7304 7.80478 60.036 8.70855 60.036 9.824H60.636C60.636 8.60345 60.3016 7.55522 59.6881 6.80595C59.0704 6.05147 58.1848 5.62 57.136 5.62V6.22ZM60.036 9.824C60.036 10.9479 59.7302 11.8557 59.2236 12.4763C58.7214 13.0915 58.0071 13.444 57.136 13.444V14.044C58.1849 14.044 59.0706 13.6125 59.6884 12.8557C60.3018 12.1043 60.636 11.0521 60.636 9.824H60.036ZM57.136 13.444C56.2646 13.444 55.546 13.0913 55.0397 12.4755C54.5293 11.8547 54.22 10.947 54.22 9.824H53.62C53.62 11.053 53.9587 12.1053 54.5763 12.8565C55.198 13.6127 56.0874 14.044 57.136 14.044V13.444ZM54.372 9.824C54.372 10.7994 54.6197 11.6605 55.0952 12.2856C55.5764 12.9182 56.2798 13.292 57.136 13.292V12.692C56.4722 12.692 55.9436 12.4098 55.5728 11.9224C55.1963 11.4275 54.972 10.7046 54.972 9.824H54.372ZM57.136 13.292C57.9922 13.292 58.6956 12.9182 59.1768 12.2856C59.6523 11.6605 59.9 10.7994 59.9 9.824H59.3C59.3 10.7046 59.0757 11.4275 58.6992 11.9224C58.3284 12.4098 57.7998 12.692 57.136 12.692V13.292ZM59.9 9.824C59.9 8.85612 59.652 7.99889 59.1765 7.37596C58.6953 6.74573 57.9922 6.372 57.136 6.372V6.972C57.7998 6.972 58.3287 7.25427 58.6995 7.74004C59.076 8.23311 59.3 8.95188 59.3 9.824H59.9ZM57.136 6.372C56.2798 6.372 55.5767 6.74573 55.0955 7.37596C54.62 7.99889 54.372 8.85612 54.372 9.824H54.972C54.972 8.95188 55.196 8.23311 55.5725 7.74004C55.9433 7.25427 56.4722 6.972 57.136 6.972V6.372ZM70.4 3.376H70.1V3.676H70.4V3.376ZM70.4 2.624V2.324H70.1V2.624H70.4ZM81.584 2.624H81.884V2.324H81.584V2.624ZM81.584 3.376V3.676H81.884V3.376H81.584ZM76.4 3.376V3.076H76.2394L76.1504 3.20959L76.4 3.376ZM75.312 5.024L75.072 4.844L74.5793 5.50097L75.3795 5.31632L75.312 5.024ZM81.984 8.144L82.2541 8.27455L82.3595 8.05642L82.1685 7.90743L81.984 8.144ZM81.52 9.104L81.3097 9.31794L81.608 9.61123L81.7901 9.23455L81.52 9.104ZM74.624 5.856L74.4352 5.62283L74.4117 5.64189L74.3924 5.66529L74.624 5.856ZM70.528 9.216L70.3411 9.45068L70.4654 9.54961L70.617 9.50249L70.528 9.216ZM69.664 8.528L69.5948 8.2361L68.9946 8.37845L69.4771 8.76268L69.664 8.528ZM75.6 3.376L75.8638 3.51882L76.1035 3.076H75.6V3.376ZM76.56 15.984V16.284H76.86V15.984H76.56ZM75.792 15.984H75.492V16.284H75.792V15.984ZM75.792 11.536H76.092V11.236H75.792V11.536ZM68.976 11.536H68.676V11.836H68.976V11.536ZM68.976 10.752V10.452H68.676V10.752H68.976ZM83.264 10.752H83.564V10.452H83.264V10.752ZM83.264 11.536V11.836H83.564V11.536H83.264ZM76.56 11.536V11.236H76.26V11.536H76.56ZM70.7 3.376V2.624H70.1V3.376H70.7ZM70.4 2.924H81.584V2.324H70.4V2.924ZM81.284 2.624V3.376H81.884V2.624H81.284ZM81.584 3.076H76.4V3.676H81.584V3.076ZM76.1504 3.20959C75.7831 3.7605 75.4027 4.40307 75.072 4.844L75.552 5.204C75.8933 4.74893 76.3129 4.0475 76.6496 3.54241L76.1504 3.20959ZM75.3795 5.31632C75.5741 5.27141 75.7582 5.244 75.936 5.244V4.644C75.6978 4.644 75.4659 4.68059 75.2445 4.73168L75.3795 5.31632ZM75.936 5.244C76.787 5.244 77.804 5.66743 78.8547 6.29189C79.8965 6.91107 80.927 7.70015 81.7995 8.38057L82.1685 7.90743C81.297 7.22785 80.2395 6.41693 79.1613 5.77611C78.092 5.14057 76.957 4.644 75.936 4.644V5.244ZM81.7139 8.01345L81.2499 8.97345L81.7901 9.23455L82.2541 8.27455L81.7139 8.01345ZM81.7303 8.89006C80.7806 7.95644 79.742 7.03441 78.7267 6.34393C77.7217 5.66045 76.6943 5.172 75.776 5.172V5.772C76.5057 5.772 77.4063 6.17155 78.3893 6.84007C79.362 7.50159 80.3714 8.39556 81.3097 9.31794L81.7303 8.89006ZM75.776 5.172C75.2876 5.172 74.8335 5.30043 74.4352 5.62283L74.8128 6.08917C75.0865 5.86757 75.4004 5.772 75.776 5.772V5.172ZM74.3924 5.66529C73.2647 7.03466 71.989 8.44794 70.439 8.92951L70.617 9.50249C72.363 8.96006 73.7433 7.39734 74.8556 6.04671L74.3924 5.66529ZM70.7149 8.98132L69.8509 8.29332L69.4771 8.76268L70.3411 9.45068L70.7149 8.98132ZM69.7332 8.8199C71.0477 8.50814 72.2882 7.71794 73.3394 6.74854C74.3923 5.77758 75.2725 4.61114 75.8638 3.51882L75.3362 3.23318C74.7755 4.26885 73.9357 5.38242 72.9326 6.30746C71.9278 7.23406 70.7763 7.95586 69.5948 8.2361L69.7332 8.8199ZM75.6 3.076H70.4V3.676H75.6V3.076ZM76.56 15.684H75.792V16.284H76.56V15.684ZM76.092 15.984V11.536H75.492V15.984H76.092ZM75.792 11.236H68.976V11.836H75.792V11.236ZM69.276 11.536V10.752H68.676V11.536H69.276ZM68.976 11.052H83.264V10.452H68.976V11.052ZM82.964 10.752V11.536H83.564V10.752H82.964ZM83.264 11.236H76.56V11.836H83.264V11.236ZM76.26 11.536V15.984H76.86V11.536H76.26ZM97.648 0.799999H97.948V0.499999H97.648V0.799999ZM97.648 9.184V9.484H97.948V9.184H97.648ZM96.88 9.184H96.58V9.484H96.88V9.184ZM96.88 0.799999V0.499999H96.58V0.799999H96.88ZM88.368 5.184L88.1157 5.02162L88.1148 5.02313L88.368 5.184ZM89.872 1.344L89.9448 1.05296L89.6455 0.978154L89.5791 1.27932L89.872 1.344ZM90.64 1.536L90.9345 1.59326L90.9888 1.31396L90.7128 1.24496L90.64 1.536ZM89.2 5.28L88.9419 5.12715L88.4445 5.96707L89.3277 5.55145L89.2 5.28ZM94.16 8.272L94.4283 8.40616L94.5009 8.26101L94.4191 8.12084L94.16 8.272ZM93.664 9.264L93.394 9.39474L93.6597 9.94346L93.9323 9.39816L93.664 9.264ZM88.784 6L88.5545 5.80676L88.5433 5.82006L88.5337 5.83457L88.784 6ZM85.584 9.408L85.3904 9.63721L85.5744 9.79255L85.7659 9.64658L85.584 9.408ZM84.864 8.8L84.7173 8.53833L84.3398 8.75L84.6704 9.02921L84.864 8.8ZM88.784 13.68L88.7781 13.9799L89.084 13.9859V13.68H88.784ZM88.784 13.36H89.084V13.06H88.784V13.36ZM87.52 13.36H87.22V13.66H87.52V13.36ZM87.52 12.608V12.308H87.22V12.608H87.52ZM96.816 12.608V12.908H97.116V12.608H96.816ZM96.816 11.024H97.116V10.724H96.816V11.024ZM87.824 11.024H87.524V11.324H87.824V11.024ZM87.824 10.272V9.972H87.524V10.272H87.824ZM97.584 10.272H97.884V9.972H97.584V10.272ZM97.584 13.36V13.66H97.884V13.36H97.584ZM90.096 13.36V13.06H90.0788L90.0616 13.062L90.096 13.36ZM90.112 15.024L90.1083 15.324H90.112V15.024ZM98.048 15.024H98.348V14.724H98.048V15.024ZM98.048 15.792V16.092H98.348V15.792H98.048ZM90.032 15.792L90.0289 16.092H90.032V15.792ZM97.348 0.799999V9.184H97.948V0.799999H97.348ZM97.648 8.884H96.88V9.484H97.648V8.884ZM97.18 9.184V0.799999H96.58V9.184H97.18ZM96.88 1.1H97.648V0.499999H96.88V1.1ZM88.6203 5.34637C89.5443 3.91089 89.8898 2.65501 90.1649 1.40868L89.5791 1.27932C89.3102 2.49698 88.9837 3.67311 88.1157 5.02163L88.6203 5.34637ZM89.7992 1.63504L90.5672 1.82704L90.7128 1.24496L89.9448 1.05296L89.7992 1.63504ZM90.3455 1.47874C90.1279 2.59776 89.644 3.94133 88.9419 5.12715L89.4581 5.43285C90.196 4.18667 90.7041 2.77824 90.9345 1.59326L90.3455 1.47874ZM89.3277 5.55145C89.5628 5.44084 89.7914 5.388 90.032 5.388V4.788C89.6966 4.788 89.3812 4.86316 89.0723 5.00855L89.3277 5.55145ZM90.032 5.388C90.8151 5.388 91.6617 5.92103 92.4013 6.61132C93.1297 7.29116 93.6914 8.06414 93.9009 8.42316L94.4191 8.12084C94.1806 7.71186 93.5823 6.89284 92.8107 6.17268C92.0503 5.46297 91.0569 4.788 90.032 4.788V5.388ZM93.8917 8.13784L93.3957 9.12984L93.9323 9.39816L94.4283 8.40616L93.8917 8.13784ZM93.934 9.13326C93.5507 8.34162 92.8828 7.39076 92.133 6.63474C91.7574 6.25607 91.354 5.91889 90.9475 5.67461C90.5442 5.43223 90.1156 5.268 89.696 5.268V5.868C89.9644 5.868 90.2838 5.97576 90.6385 6.18889C90.99 6.40011 91.3546 6.70193 91.707 7.05726C92.4132 7.76924 93.0413 8.66638 93.394 9.39474L93.934 9.13326ZM89.696 5.268C89.2754 5.268 88.87 5.43212 88.5545 5.80676L89.0135 6.19324C89.21 5.95988 89.4446 5.868 89.696 5.868V5.268ZM88.5337 5.83457C87.9198 6.76339 87.3174 7.70941 85.4021 9.16942L85.7659 9.64658C87.7546 8.13058 88.4002 7.12461 89.0343 6.16543L88.5337 5.83457ZM85.7776 9.17879L85.0576 8.57079L84.6704 9.02921L85.3904 9.63721L85.7776 9.17879ZM85.0107 9.06167C86.7899 8.064 87.7507 6.71507 88.6212 5.34487L88.1148 5.02313C87.2573 6.37293 86.3621 7.616 84.7173 8.53833L85.0107 9.06167ZM87.916 14.624C87.916 14.4283 88.1415 13.9675 88.7781 13.9799L88.7899 13.3801C87.7945 13.3605 87.316 14.1157 87.316 14.624H87.916ZM89.084 13.68V13.36H88.484V13.68H89.084ZM88.784 13.06H87.52V13.66H88.784V13.06ZM87.82 13.36V12.608H87.22V13.36H87.82ZM87.52 12.908H96.816V12.308H87.52V12.908ZM97.116 12.608V11.024H96.516V12.608H97.116ZM96.816 10.724H87.824V11.324H96.816V10.724ZM88.124 11.024V10.272H87.524V11.024H88.124ZM87.824 10.572H97.584V9.972H87.824V10.572ZM97.284 10.272V13.36H97.884V10.272H97.284ZM97.584 13.06H90.096V13.66H97.584V13.06ZM90.0616 13.062C89.4036 13.1379 88.9208 13.3182 88.5943 13.5583C88.2682 13.7981 88.084 14.1114 88.084 14.432H88.684C88.684 14.3526 88.7318 14.2019 88.9497 14.0417C89.1672 13.8818 89.5404 13.7261 90.1304 13.658L90.0616 13.062ZM88.084 14.432C88.084 14.6077 88.1176 14.7872 88.2323 14.9392C88.3471 15.0914 88.5108 15.1729 88.6807 15.2208C88.8483 15.2679 89.0504 15.2902 89.2784 15.303C89.509 15.316 89.7858 15.32 90.1083 15.324L90.1157 14.724C89.7902 14.72 89.527 14.716 89.3121 14.704C89.0946 14.6918 88.9457 14.6721 88.8433 14.6432C88.7432 14.6151 88.7179 14.5866 88.7112 14.5778C88.7044 14.5688 88.684 14.5363 88.684 14.432H88.084ZM90.112 15.324H98.048V14.724H90.112V15.324ZM97.748 15.024V15.792H98.348V15.024H97.748ZM98.048 15.492H90.032V16.092H98.048V15.492ZM90.0351 15.492C89.2488 15.4839 88.7019 15.4451 88.3522 15.307C88.1875 15.2419 88.0869 15.1619 88.0241 15.0686C87.9608 14.9748 87.916 14.8379 87.916 14.624H87.316C87.316 14.9221 87.3792 15.1852 87.5264 15.4039C87.6741 15.6231 87.8865 15.7681 88.1318 15.865C88.6021 16.0509 89.2632 16.0841 90.0289 16.092L90.0351 15.492ZM118.938 7.488V7.788H119.21L119.236 7.51664L118.938 7.488ZM118.17 7.488L117.871 7.45815L117.838 7.788H118.17V7.488ZM118.33 4.4H118.63L118.63 4.39571L118.33 4.4ZM108.602 2.976H108.302V3.276H108.602V2.976ZM108.602 2.208V1.908H108.302V2.208H108.602ZM117.146 2.208V2.50811L117.154 2.50788L117.146 2.208ZM106.57 8.944V8.644H106.27V8.944H106.57ZM111.978 8.944V9.244H112.278V8.944H111.978ZM111.978 5.232V4.932H111.678V5.232H111.978ZM112.746 5.232H113.046V4.932H112.746V5.232ZM112.746 8.944H112.446V9.244H112.746V8.944ZM120.858 8.944H121.158V8.644H120.858V8.944ZM120.858 9.728V10.028H121.158V9.728H120.858ZM106.57 9.728H106.27V10.028H106.57V9.728ZM113.306 11.024L113.445 10.7581L113.198 10.6292L113.051 10.8655L113.306 11.024ZM114.01 11.392L114.264 11.5518L114.437 11.2767L114.149 11.1261L114.01 11.392ZM113.082 12.576L112.874 12.3592L113.182 12.8589L113.082 12.576ZM119.914 15.04L120.183 15.1723L120.294 14.9469L120.091 14.7982L119.914 15.04ZM119.45 15.984L119.254 16.2112L119.548 16.4647L119.719 16.1163L119.45 15.984ZM112.234 13.344L112.06 13.0992L112.047 13.1089L112.034 13.1201L112.234 13.344ZM108.122 15.936L107.926 16.1631L108.043 16.2641L108.193 16.2274L108.122 15.936ZM107.306 15.232L107.244 14.9385L106.651 15.0635L107.11 15.4591L107.306 15.232ZM118.798 4.32C118.798 4.83968 118.75 6.30204 118.639 7.45936L119.236 7.51664C119.349 6.33796 119.398 4.85632 119.398 4.32H118.798ZM118.938 7.188H118.17V7.788H118.938V7.188ZM118.468 7.51785C118.581 6.38625 118.63 4.88812 118.63 4.4H118.03C118.03 4.87187 117.982 6.34975 117.871 7.45815L118.468 7.51785ZM118.63 4.39571C118.621 3.81866 118.521 3.35571 118.206 3.05205C117.892 2.74943 117.438 2.676 116.922 2.676V3.276C117.413 3.276 117.655 3.35457 117.79 3.48395C117.923 3.61229 118.022 3.86134 118.03 4.40429L118.63 4.39571ZM116.922 2.676H108.602V3.276H116.922V2.676ZM108.902 2.976V2.208H108.302V2.976H108.902ZM108.602 2.508H117.146V1.908H108.602V2.508ZM117.154 2.50788C117.68 2.49328 118.077 2.62192 118.343 2.88399C118.61 3.14634 118.798 3.59209 118.798 4.32H119.398C119.398 3.49591 119.185 2.86966 118.764 2.45601C118.343 2.04208 117.764 1.89072 117.137 1.90811L117.154 2.50788ZM106.57 9.244H111.978V8.644H106.57V9.244ZM112.278 8.944V5.232H111.678V8.944H112.278ZM111.978 5.532H112.746V4.932H111.978V5.532ZM112.446 5.232V8.944H113.046V5.232H112.446ZM112.746 9.244H120.858V8.644H112.746V9.244ZM120.558 8.944V9.728H121.158V8.944H120.558ZM120.858 9.428H106.57V10.028H120.858V9.428ZM106.87 9.728V8.944H106.27V9.728H106.87ZM113.167 11.2899L113.871 11.6579L114.149 11.1261L113.445 10.7581L113.167 11.2899ZM113.756 11.2322C113.49 11.6548 113.217 12.0316 112.874 12.3592L113.289 12.7928C113.683 12.4164 113.986 11.9932 114.264 11.5518L113.756 11.2322ZM113.182 12.8589C113.409 12.7785 113.676 12.748 113.962 12.748V12.148C113.64 12.148 113.298 12.1815 112.982 12.2931L113.182 12.8589ZM113.962 12.748C114.831 12.748 115.879 13.0856 116.923 13.5828C117.96 14.077 118.964 14.7144 119.736 15.2818L120.091 14.7982C119.296 14.2136 118.259 13.555 117.181 13.0412C116.109 12.5304 114.964 12.148 113.962 12.148V12.748ZM119.645 14.9077L119.181 15.8517L119.719 16.1163L120.183 15.1723L119.645 14.9077ZM119.646 15.7568C118.586 14.8426 117.504 14.0684 116.477 13.5213C115.455 12.9766 114.464 12.644 113.594 12.644V13.244C114.323 13.244 115.213 13.5274 116.195 14.0507C117.172 14.5716 118.218 15.3174 119.254 16.2112L119.646 15.7568ZM113.594 12.644C113.031 12.644 112.504 12.7852 112.06 13.0992L112.407 13.5888C112.732 13.3588 113.132 13.244 113.594 13.244V12.644ZM112.034 13.1201C111.448 13.6432 110.775 14.1973 110.083 14.6607C109.388 15.1261 108.689 15.4886 108.051 15.6446L108.193 16.2274C108.93 16.0474 109.696 15.6419 110.417 15.1593C111.141 14.6747 111.836 14.1008 112.433 13.5679L112.034 13.1201ZM108.318 15.7089L107.502 15.0049L107.11 15.4591L107.926 16.1631L108.318 15.7089ZM107.368 15.5255C109.8 15.0126 112.254 13.2834 113.56 11.1825L113.051 10.8655C111.83 12.8286 109.515 14.4594 107.244 14.9385L107.368 15.5255Z" fill="#37794F" mask="url(#path-1-outside-1_1_129)"/>
</svg>
