<svg width="47" height="17" viewBox="0 0 47 17" fill="none" xmlns="http://www.w3.org/2000/svg">
<mask id="path-1-outside-1_4_257" maskUnits="userSpaceOnUse" x="0" y="0" width="47" height="17" fill="black">
<rect fill="white" width="47" height="17"/>
<path d="M11.896 0.799999V5.184H14.696V5.936H11.896V9.984H11.112L11.128 0.799999H11.896ZM0.664 9.472V2.048H1.432V4.672C2.52 4.256 4.28 4.064 5.832 4.064C6.28 4.064 6.712 4.08 7.112 4.112V2.048H7.864V6.32C7.896 7.424 7.16 8.112 6.28 8.56V8.72H7.864V9.472H0.664ZM1.432 8.72H5.016C6.232 8.544 7.112 7.376 7.112 6.16V4.864C5.336 4.736 2.84 4.896 1.432 5.424V8.72ZM1.928 13.36C1.928 11.76 3.992 10.656 7.16 10.656C10.328 10.656 12.392 11.76 12.392 13.36C12.392 14.96 10.328 16.064 7.16 16.064C3.992 16.064 1.928 14.96 1.928 13.36ZM11.56 13.36C11.56 12.128 9.72 11.408 7.16 11.408C4.6 11.408 2.76 12.128 2.76 13.36C2.76 14.592 4.6 15.28 7.16 15.28C9.72 15.28 11.56 14.592 11.56 13.36ZM28.648 0.799999V9.984H27.88V7.648H24.824V6.912H27.88V4.528H24.824V3.792H27.88V0.799999H28.648ZM16.984 9.072V2.208H24.184V5.92C24.216 7.024 23.48 7.712 22.6 8.16V8.32H24.184V9.072H16.984ZM17.752 8.32H21.336C22.552 8.144 23.432 6.976 23.432 5.76V2.976H17.752V8.32ZM18.248 13.36C18.248 11.76 20.312 10.656 23.48 10.656C26.648 10.656 28.712 11.76 28.712 13.36C28.712 14.96 26.648 16.064 23.48 16.064C20.312 16.064 18.248 14.96 18.248 13.36ZM27.88 13.36C27.88 12.128 26.04 11.408 23.48 11.408C20.92 11.408 19.08 12.128 19.08 13.36C19.08 14.592 20.92 15.28 23.48 15.28C26.04 15.28 27.88 14.592 27.88 13.36ZM31.976 9.264H38.648V7.808H36.232C34.76 7.808 33.816 7.68 33.816 6.496C33.816 6.128 34.168 5.536 34.984 5.552V5.232H33.72V4.464H43.336V2.976H34.024V2.224H44.104V5.232H36.296C35.048 5.376 34.584 5.888 34.584 6.304C34.584 7.024 35.096 7.04 36.312 7.056H44.568V7.808H39.416V9.264H46.264V10.048H31.976V9.264ZM42.44 11.76C43.976 11.76 44.584 12.56 44.536 13.712V15.984H43.768V13.936C43.768 12.912 43.48 12.544 42.36 12.512H33.608V11.76H42.44Z"/>
</mask>
<path d="M11.896 0.799999V5.184H14.696V5.936H11.896V9.984H11.112L11.128 0.799999H11.896ZM0.664 9.472V2.048H1.432V4.672C2.52 4.256 4.28 4.064 5.832 4.064C6.28 4.064 6.712 4.08 7.112 4.112V2.048H7.864V6.32C7.896 7.424 7.16 8.112 6.28 8.56V8.72H7.864V9.472H0.664ZM1.432 8.72H5.016C6.232 8.544 7.112 7.376 7.112 6.16V4.864C5.336 4.736 2.84 4.896 1.432 5.424V8.72ZM1.928 13.36C1.928 11.76 3.992 10.656 7.16 10.656C10.328 10.656 12.392 11.76 12.392 13.36C12.392 14.96 10.328 16.064 7.16 16.064C3.992 16.064 1.928 14.96 1.928 13.36ZM11.56 13.36C11.56 12.128 9.72 11.408 7.16 11.408C4.6 11.408 2.76 12.128 2.76 13.36C2.76 14.592 4.6 15.28 7.16 15.28C9.72 15.28 11.56 14.592 11.56 13.36ZM28.648 0.799999V9.984H27.88V7.648H24.824V6.912H27.88V4.528H24.824V3.792H27.88V0.799999H28.648ZM16.984 9.072V2.208H24.184V5.92C24.216 7.024 23.48 7.712 22.6 8.16V8.32H24.184V9.072H16.984ZM17.752 8.32H21.336C22.552 8.144 23.432 6.976 23.432 5.76V2.976H17.752V8.32ZM18.248 13.36C18.248 11.76 20.312 10.656 23.48 10.656C26.648 10.656 28.712 11.76 28.712 13.36C28.712 14.96 26.648 16.064 23.48 16.064C20.312 16.064 18.248 14.96 18.248 13.36ZM27.88 13.36C27.88 12.128 26.04 11.408 23.48 11.408C20.92 11.408 19.08 12.128 19.08 13.36C19.08 14.592 20.92 15.28 23.48 15.28C26.04 15.28 27.88 14.592 27.88 13.36ZM31.976 9.264H38.648V7.808H36.232C34.76 7.808 33.816 7.68 33.816 6.496C33.816 6.128 34.168 5.536 34.984 5.552V5.232H33.72V4.464H43.336V2.976H34.024V2.224H44.104V5.232H36.296C35.048 5.376 34.584 5.888 34.584 6.304C34.584 7.024 35.096 7.04 36.312 7.056H44.568V7.808H39.416V9.264H46.264V10.048H31.976V9.264ZM42.44 11.76C43.976 11.76 44.584 12.56 44.536 13.712V15.984H43.768V13.936C43.768 12.912 43.48 12.544 42.36 12.512H33.608V11.76H42.44Z" fill="#37794F"/>
<path d="M11.896 0.799999H12.196V0.499999H11.896V0.799999ZM11.896 5.184H11.596V5.484H11.896V5.184ZM14.696 5.184H14.996V4.884H14.696V5.184ZM14.696 5.936V6.236H14.996V5.936H14.696ZM11.896 5.936V5.636H11.596V5.936H11.896ZM11.896 9.984V10.284H12.196V9.984H11.896ZM11.112 9.984L10.812 9.98348L10.8115 10.284H11.112V9.984ZM11.128 0.799999V0.499999H10.8285L10.828 0.799477L11.128 0.799999ZM0.664 9.472H0.364V9.772H0.664V9.472ZM0.664 2.048V1.748H0.364V2.048H0.664ZM1.432 2.048H1.732V1.748H1.432V2.048ZM1.432 4.672H1.132V5.10789L1.53914 4.95222L1.432 4.672ZM7.112 4.112L7.08808 4.41104L7.412 4.43696V4.112H7.112ZM7.112 2.048V1.748H6.812V2.048H7.112ZM7.864 2.048H8.164V1.748H7.864V2.048ZM7.864 6.32H7.56387L7.56413 6.32869L7.864 6.32ZM6.28 8.56L6.1439 8.29265L5.98 8.37609V8.56H6.28ZM6.28 8.72H5.98V9.02H6.28V8.72ZM7.864 8.72H8.164V8.42H7.864V8.72ZM7.864 9.472V9.772H8.164V9.472H7.864ZM1.432 8.72H1.132V9.02H1.432V8.72ZM5.016 8.72V9.02H5.0376L5.05897 9.01691L5.016 8.72ZM7.112 4.864H7.412V4.58484L7.13357 4.56478L7.112 4.864ZM1.432 5.424L1.32666 5.1431L1.132 5.2161V5.424H1.432ZM11.596 0.799999V5.184H12.196V0.799999H11.596ZM11.896 5.484H14.696V4.884H11.896V5.484ZM14.396 5.184V5.936H14.996V5.184H14.396ZM14.696 5.636H11.896V6.236H14.696V5.636ZM11.596 5.936V9.984H12.196V5.936H11.596ZM11.896 9.684H11.112V10.284H11.896V9.684ZM11.412 9.98452L11.428 0.800522L10.828 0.799477L10.812 9.98348L11.412 9.98452ZM11.128 1.1H11.896V0.499999H11.128V1.1ZM0.964 9.472V2.048H0.364V9.472H0.964ZM0.664 2.348H1.432V1.748H0.664V2.348ZM1.132 2.048V4.672H1.732V2.048H1.132ZM1.53914 4.95222C2.57557 4.55593 4.29174 4.364 5.832 4.364V3.764C4.26826 3.764 2.46443 3.95607 1.32486 4.39178L1.53914 4.95222ZM5.832 4.364C6.27307 4.364 6.69702 4.37976 7.08808 4.41104L7.13592 3.81295C6.72698 3.78024 6.28693 3.764 5.832 3.764V4.364ZM7.412 4.112V2.048H6.812V4.112H7.412ZM7.112 2.348H7.864V1.748H7.112V2.348ZM7.564 2.048V6.32H8.164V2.048H7.564ZM7.56413 6.32869C7.59112 7.26001 6.98318 7.86538 6.1439 8.29265L6.41611 8.82735C7.33682 8.35862 8.20088 7.58799 8.16387 6.31131L7.56413 6.32869ZM5.98 8.56V8.72H6.58V8.56H5.98ZM6.28 9.02H7.864V8.42H6.28V9.02ZM7.564 8.72V9.472H8.164V8.72H7.564ZM7.864 9.172H0.664V9.772H7.864V9.172ZM1.432 9.02H5.016V8.42H1.432V9.02ZM5.05897 9.01691C6.44289 8.8166 7.412 7.50353 7.412 6.16H6.812C6.812 7.24847 6.02111 8.2714 4.97303 8.42309L5.05897 9.01691ZM7.412 6.16V4.864H6.812V6.16H7.412ZM7.13357 4.56478C5.34001 4.43551 2.79374 4.59295 1.32666 5.1431L1.53734 5.7049C2.88626 5.19905 5.33199 5.03649 7.09044 5.16322L7.13357 4.56478ZM1.132 5.424V8.72H1.732V5.424H1.132ZM2.228 13.36C2.228 12.7115 2.64089 12.1196 3.49481 11.674C4.34992 11.2276 5.60553 10.956 7.16 10.956V10.356C5.54647 10.356 4.18608 10.6364 3.21719 11.142C2.24711 11.6484 1.628 12.4085 1.628 13.36H2.228ZM7.16 10.956C8.71447 10.956 9.97008 11.2276 10.8252 11.674C11.6791 12.1196 12.092 12.7115 12.092 13.36H12.692C12.692 12.4085 12.0729 11.6484 11.1028 11.142C10.1339 10.6364 8.77353 10.356 7.16 10.356V10.956ZM12.092 13.36C12.092 14.0085 11.6791 14.6004 10.8252 15.046C9.97008 15.4924 8.71447 15.764 7.16 15.764V16.364C8.77353 16.364 10.1339 16.0836 11.1028 15.578C12.0729 15.0716 12.692 14.3115 12.692 13.36H12.092ZM7.16 15.764C5.60553 15.764 4.34992 15.4924 3.49481 15.046C2.64089 14.6004 2.228 14.0085 2.228 13.36H1.628C1.628 14.3115 2.24711 15.0716 3.21719 15.578C4.18608 16.0836 5.54647 16.364 7.16 16.364V15.764ZM11.86 13.36C11.86 12.5642 11.2604 11.9983 10.4381 11.6462C9.60698 11.2903 8.46229 11.108 7.16 11.108V11.708C8.41772 11.708 9.47302 11.8857 10.2019 12.1978C10.9396 12.5137 11.26 12.9238 11.26 13.36H11.86ZM7.16 11.108C5.85772 11.108 4.71302 11.2903 3.88191 11.6462C3.05958 11.9983 2.46 12.5642 2.46 13.36H3.06C3.06 12.9238 3.38042 12.5137 4.11809 12.1978C4.84698 11.8857 5.90229 11.708 7.16 11.708V11.108ZM2.46 13.36C2.46 14.1577 3.06209 14.7151 3.88431 15.0588C4.71509 15.406 5.85918 15.58 7.16 15.58V14.98C5.90082 14.98 4.84491 14.81 4.11569 14.5052C3.37791 14.1968 3.06 13.7943 3.06 13.36H2.46ZM7.16 15.58C8.46082 15.58 9.60491 15.406 10.4357 15.0588C11.2579 14.7151 11.86 14.1577 11.86 13.36H11.26C11.26 13.7943 10.9421 14.1968 10.2043 14.5052C9.47509 14.81 8.41918 14.98 7.16 14.98V15.58ZM28.648 0.799999H28.948V0.499999H28.648V0.799999ZM28.648 9.984V10.284H28.948V9.984H28.648ZM27.88 9.984H27.58V10.284H27.88V9.984ZM27.88 7.648H28.18V7.348H27.88V7.648ZM24.824 7.648H24.524V7.948H24.824V7.648ZM24.824 6.912V6.612H24.524V6.912H24.824ZM27.88 6.912V7.212H28.18V6.912H27.88ZM27.88 4.528H28.18V4.228H27.88V4.528ZM24.824 4.528H24.524V4.828H24.824V4.528ZM24.824 3.792V3.492H24.524V3.792H24.824ZM27.88 3.792V4.092H28.18V3.792H27.88ZM27.88 0.799999V0.499999H27.58V0.799999H27.88ZM16.984 9.072H16.684V9.372H16.984V9.072ZM16.984 2.208V1.908H16.684V2.208H16.984ZM24.184 2.208H24.484V1.908H24.184V2.208ZM24.184 5.92H23.8839L23.8841 5.92869L24.184 5.92ZM22.6 8.16L22.4639 7.89265L22.3 7.97609V8.16H22.6ZM22.6 8.32H22.3V8.62H22.6V8.32ZM24.184 8.32H24.484V8.02H24.184V8.32ZM24.184 9.072V9.372H24.484V9.072H24.184ZM17.752 8.32H17.452V8.62H17.752V8.32ZM21.336 8.32V8.62H21.3576L21.379 8.61691L21.336 8.32ZM23.432 2.976H23.732V2.676H23.432V2.976ZM17.752 2.976V2.676H17.452V2.976H17.752ZM28.348 0.799999V9.984H28.948V0.799999H28.348ZM28.648 9.684H27.88V10.284H28.648V9.684ZM28.18 9.984V7.648H27.58V9.984H28.18ZM27.88 7.348H24.824V7.948H27.88V7.348ZM25.124 7.648V6.912H24.524V7.648H25.124ZM24.824 7.212H27.88V6.612H24.824V7.212ZM28.18 6.912V4.528H27.58V6.912H28.18ZM27.88 4.228H24.824V4.828H27.88V4.228ZM25.124 4.528V3.792H24.524V4.528H25.124ZM24.824 4.092H27.88V3.492H24.824V4.092ZM28.18 3.792V0.799999H27.58V3.792H28.18ZM27.88 1.1H28.648V0.499999H27.88V1.1ZM17.284 9.072V2.208H16.684V9.072H17.284ZM16.984 2.508H24.184V1.908H16.984V2.508ZM23.884 2.208V5.92H24.484V2.208H23.884ZM23.8841 5.92869C23.9111 6.86001 23.3032 7.46538 22.4639 7.89265L22.7361 8.42735C23.6568 7.95862 24.5209 7.18799 24.4839 5.91131L23.8841 5.92869ZM22.3 8.16V8.32H22.9V8.16H22.3ZM22.6 8.62H24.184V8.02H22.6V8.62ZM23.884 8.32V9.072H24.484V8.32H23.884ZM24.184 8.772H16.984V9.372H24.184V8.772ZM17.752 8.62H21.336V8.02H17.752V8.62ZM21.379 8.61691C22.7629 8.4166 23.732 7.10353 23.732 5.76H23.132C23.132 6.84847 22.3411 7.8714 21.293 8.02309L21.379 8.61691ZM23.732 5.76V2.976H23.132V5.76H23.732ZM23.432 2.676H17.752V3.276H23.432V2.676ZM17.452 2.976V8.32H18.052V2.976H17.452ZM18.548 13.36C18.548 12.7115 18.9609 12.1196 19.8148 11.674C20.6699 11.2276 21.9255 10.956 23.48 10.956V10.356C21.8665 10.356 20.5061 10.6364 19.5372 11.142C18.5671 11.6484 17.948 12.4085 17.948 13.36H18.548ZM23.48 10.956C25.0345 10.956 26.2901 11.2276 27.1452 11.674C27.9991 12.1196 28.412 12.7115 28.412 13.36H29.012C29.012 12.4085 28.3929 11.6484 27.4228 11.142C26.4539 10.6364 25.0935 10.356 23.48 10.356V10.956ZM28.412 13.36C28.412 14.0085 27.9991 14.6004 27.1452 15.046C26.2901 15.4924 25.0345 15.764 23.48 15.764V16.364C25.0935 16.364 26.4539 16.0836 27.4228 15.578C28.3929 15.0716 29.012 14.3115 29.012 13.36H28.412ZM23.48 15.764C21.9255 15.764 20.6699 15.4924 19.8148 15.046C18.9609 14.6004 18.548 14.0085 18.548 13.36H17.948C17.948 14.3115 18.5671 15.0716 19.5372 15.578C20.5061 16.0836 21.8665 16.364 23.48 16.364V15.764ZM28.18 13.36C28.18 12.5642 27.5804 11.9983 26.7581 11.6462C25.927 11.2903 24.7823 11.108 23.48 11.108V11.708C24.7377 11.708 25.793 11.8857 26.5219 12.1978C27.2596 12.5137 27.58 12.9238 27.58 13.36H28.18ZM23.48 11.108C22.1777 11.108 21.033 11.2903 20.2019 11.6462C19.3796 11.9983 18.78 12.5642 18.78 13.36H19.38C19.38 12.9238 19.7004 12.5137 20.4381 12.1978C21.167 11.8857 22.2223 11.708 23.48 11.708V11.108ZM18.78 13.36C18.78 14.1577 19.3821 14.7151 20.2043 15.0588C21.0351 15.406 22.1792 15.58 23.48 15.58V14.98C22.2208 14.98 21.1649 14.81 20.4357 14.5052C19.6979 14.1968 19.38 13.7943 19.38 13.36H18.78ZM23.48 15.58C24.7808 15.58 25.9249 15.406 26.7557 15.0588C27.5779 14.7151 28.18 14.1577 28.18 13.36H27.58C27.58 13.7943 27.2621 14.1968 26.5243 14.5052C25.7951 14.81 24.7392 14.98 23.48 14.98V15.58ZM31.976 9.264V8.964H31.676V9.264H31.976ZM38.648 9.264V9.564H38.948V9.264H38.648ZM38.648 7.808H38.948V7.508H38.648V7.808ZM34.984 5.552L34.9781 5.85194L35.284 5.85794V5.552H34.984ZM34.984 5.232H35.284V4.932H34.984V5.232ZM33.72 5.232H33.42V5.532H33.72V5.232ZM33.72 4.464V4.164H33.42V4.464H33.72ZM43.336 4.464V4.764H43.636V4.464H43.336ZM43.336 2.976H43.636V2.676H43.336V2.976ZM34.024 2.976H33.724V3.276H34.024V2.976ZM34.024 2.224V1.924H33.724V2.224H34.024ZM44.104 2.224H44.404V1.924H44.104V2.224ZM44.104 5.232V5.532H44.404V5.232H44.104ZM36.296 5.232V4.932H36.2788L36.2616 4.93398L36.296 5.232ZM36.312 7.056L36.3081 7.356H36.312V7.056ZM44.568 7.056H44.868V6.756H44.568V7.056ZM44.568 7.808V8.108H44.868V7.808H44.568ZM39.416 7.808V7.508H39.116V7.808H39.416ZM39.416 9.264H39.116V9.564H39.416V9.264ZM46.264 9.264H46.564V8.964H46.264V9.264ZM46.264 10.048V10.348H46.564V10.048H46.264ZM31.976 10.048H31.676V10.348H31.976V10.048ZM44.536 13.712L44.236 13.6995V13.712H44.536ZM44.536 15.984V16.284H44.836V15.984H44.536ZM43.768 15.984H43.468V16.284H43.768V15.984ZM42.36 12.512L42.3686 12.212H42.36V12.512ZM33.608 12.512H33.308V12.812H33.608V12.512ZM33.608 11.76V11.46H33.308V11.76H33.608ZM31.976 9.564H38.648V8.964H31.976V9.564ZM38.948 9.264V7.808H38.348V9.264H38.948ZM38.648 7.508H36.232V8.108H38.648V7.508ZM36.232 7.508C35.4862 7.508 34.9446 7.47214 34.5902 7.32026C34.4238 7.24896 34.3134 7.15759 34.2409 7.04156C34.1671 6.92336 34.116 6.75282 34.116 6.496H33.516C33.516 6.83118 33.5829 7.12064 33.7321 7.35944C33.8826 7.60041 34.1002 7.76303 34.3538 7.87174C34.8394 8.07986 35.5058 8.108 36.232 8.108V7.508ZM34.116 6.496C34.116 6.28733 34.3386 5.8394 34.9781 5.85194L34.9899 5.25206C33.9974 5.2326 33.516 5.96867 33.516 6.496H34.116ZM35.284 5.552V5.232H34.684V5.552H35.284ZM34.984 4.932H33.72V5.532H34.984V4.932ZM34.02 5.232V4.464H33.42V5.232H34.02ZM33.72 4.764H43.336V4.164H33.72V4.764ZM43.636 4.464V2.976H43.036V4.464H43.636ZM43.336 2.676H34.024V3.276H43.336V2.676ZM34.324 2.976V2.224H33.724V2.976H34.324ZM34.024 2.524H44.104V1.924H34.024V2.524ZM43.804 2.224V5.232H44.404V2.224H43.804ZM44.104 4.932H36.296V5.532H44.104V4.932ZM36.2616 4.93398C35.6054 5.00969 35.1225 5.18538 34.7954 5.42346C34.4666 5.66282 34.284 5.97701 34.284 6.304H34.884C34.884 6.21499 34.9334 6.06518 35.1486 5.90854C35.3655 5.75062 35.7386 5.59831 36.3304 5.53002L36.2616 4.93398ZM34.284 6.304C34.284 6.51624 34.3212 6.71701 34.4315 6.88658C34.545 7.06099 34.711 7.1648 34.8947 7.22778C35.0724 7.28872 35.2818 7.31677 35.5085 7.3323C35.7374 7.34797 36.0061 7.352 36.3081 7.35597L36.3159 6.75603C36.0099 6.752 35.7586 6.74803 35.5495 6.7337C35.3382 6.71923 35.1916 6.69528 35.0893 6.66022C34.993 6.6272 34.955 6.59101 34.9345 6.55942C34.9108 6.52299 34.884 6.45176 34.884 6.304H34.284ZM36.312 7.356H44.568V6.756H36.312V7.356ZM44.268 7.056V7.808H44.868V7.056H44.268ZM44.568 7.508H39.416V8.108H44.568V7.508ZM39.116 7.808V9.264H39.716V7.808H39.116ZM39.416 9.564H46.264V8.964H39.416V9.564ZM45.964 9.264V10.048H46.564V9.264H45.964ZM46.264 9.748H31.976V10.348H46.264V9.748ZM32.276 10.048V9.264H31.676V10.048H32.276ZM42.44 12.06C43.1593 12.06 43.6054 12.247 43.868 12.5143C44.1298 12.7807 44.258 13.1766 44.2363 13.6995L44.8357 13.7245C44.8619 13.0954 44.7102 12.5153 44.296 12.0937C43.8826 11.673 43.2567 11.46 42.44 11.46V12.06ZM44.236 13.712V15.984H44.836V13.712H44.236ZM44.536 15.684H43.768V16.284H44.536V15.684ZM44.068 15.984V13.936H43.468V15.984H44.068ZM44.068 13.936C44.068 13.4152 43.9997 12.9605 43.7019 12.6458C43.4026 12.3295 42.9425 12.2285 42.3686 12.2121L42.3514 12.8119C42.8975 12.8275 43.1414 12.9265 43.2661 13.0582C43.3923 13.1915 43.468 13.4328 43.468 13.936H44.068ZM42.36 12.212H33.608V12.812H42.36V12.212ZM33.908 12.512V11.76H33.308V12.512H33.908ZM33.608 12.06H42.44V11.46H33.608V12.06Z" fill="#37794F" mask="url(#path-1-outside-1_4_257)"/>
</svg>
